<?xml version="1.0" encoding="utf-8"?>
<!-- Generator: Adobe Illustrator 23.1.0, SVG Export Plug-In . SVG Version: 6.00 Build 0)  -->
<svg version="1.1" id="Layer_1" xmlns="http://www.w3.org/2000/svg" xmlns:xlink="http://www.w3.org/1999/xlink" x="0px" y="0px"
	 viewBox="0 0 708 555.9" style="enable-background:new 0 0 708 555.9;" xml:space="preserve">
<style type="text/css">
	.st0{fill:#F0F0F0;}
	.st1{fill:#3F3D56;}
	.st2{fill:#FFFFFF;}
	.st3{fill:#FF1494;}
	.st4{fill:#2F2E41;}
</style>
<path id="b10fb2cf-c586-4c5f-9fbf-e678f5ffa3db-111" class="st0" d="M644.5,507.4c-13.6,14.5-29.1,27.1-46.2,37.3
	c-0.4,0.2-0.8,0.5-1.2,0.7L569.4,521c0.3-0.3,0.6-0.6,1-0.9C591,500.5,693.2,363.8,700,330.5C699.6,333.3,706.2,442,644.5,507.4z"/>
<path id="a32c10c7-75df-4179-a648-6a8d2a687209-112" class="st0" d="M603.6,549.4c-0.5,0.1-1.1,0.2-1.6,0.3l-20.7-18.4
	c0.4-0.1,0.9-0.3,1.4-0.5c8.9-3.2,35.4-12.7,61.8-23.5c28.3-11.6,56.5-24.8,62.6-33.2C705.8,476.2,665.7,535.6,603.6,549.4z"/>
<path class="st1" d="M644.1,145.6h-3V64.7c0-25.9-21-46.8-46.8-46.8l0,0H422.9c-25.9,0-46.8,21-46.8,46.8v443.8
	c0,25.9,21,46.8,46.8,46.8h0h171.4c25.9,0,46.8-21,46.8-46.8V203.2h3V145.6z"/>
<path class="st2" d="M631.2,65v443.1c0,19.3-15.7,35-35,35c0,0,0,0,0,0H424c-19.3,0-35-15.6-35-35c0,0,0,0,0,0V65
	c0-19.3,15.6-35,35-35c0,0,0,0,0,0h20.9c-3.5,8.5,0.6,18.2,9.1,21.7c2,0.8,4.1,1.2,6.2,1.2h98.2c9.2,0,16.6-7.4,16.6-16.6
	c0-2.2-0.4-4.3-1.2-6.3h22.4C615.5,30,631.2,45.7,631.2,65C631.2,65,631.2,65,631.2,65z"/>
<path class="st0" d="M577.6,295.3H426.2c-5.5,0-10-4.5-10-10v-5c0-5.5,4.5-10,10-10h151.4c5.5,0,10,4.5,10,10v5
	C587.6,290.8,583.1,295.3,577.6,295.3z"/>
<path class="st0" d="M577.6,338.2H426.2c-5.5,0-10-4.5-10-10v-5c0-5.5,4.5-10,10-10h151.4c5.5,0,10,4.5,10,10v5
	C587.6,333.7,583.1,338.2,577.6,338.2z"/>
<path class="st1" d="M585.2,285.7H433.8c-5.8,0-10.5-4.7-10.5-10.5v-5c0-5.8,4.7-10.5,10.5-10.5h151.4c5.8,0,10.5,4.7,10.5,10.5v5
	C595.7,281,591,285.7,585.2,285.7z M433.8,261.7c-4.7,0-8.5,3.8-8.5,8.5v5c0,4.7,3.8,8.5,8.5,8.5h151.4c4.7,0,8.5-3.8,8.5-8.5v-5
	c0-4.7-3.8-8.5-8.5-8.5H433.8z"/>
<path class="st1" d="M585.2,328.6H433.8c-5.8,0-10.5-4.7-10.5-10.5v-5c0-5.8,4.7-10.5,10.5-10.5h151.4c5.8,0,10.5,4.7,10.5,10.5v5
	C595.7,323.9,591,328.6,585.2,328.6z M433.8,304.6c-4.7,0-8.5,3.8-8.5,8.5v5c0,4.7,3.8,8.5,8.5,8.5h151.4c4.7,0,8.5-3.8,8.5-8.5v-5
	c0-4.7-3.8-8.5-8.5-8.5H433.8z"/>
<path class="st0" d="M631.2,65v96.4c-55.3,14.5-111.9-18.5-126.5-73.8c-2.3-8.6-3.4-17.4-3.4-26.3c0-2.8,0.1-5.6,0.3-8.4h56.8
	c9.2,0,16.6-7.4,16.6-16.6c0-2.2-0.4-4.3-1.2-6.3h22.4C615.5,30,631.2,45.7,631.2,65C631.2,65,631.2,65,631.2,65z"/>
<path class="st3" d="M476,537.1c0,2-0.1,4-0.2,6H424c-19.3,0-35-15.6-35-35c0,0,0,0,0,0v-47.4c42.2-5.5,80.9,24.3,86.4,66.5
	C475.8,530.5,476,533.8,476,537.1L476,537.1z"/>
<path class="st0" d="M58.1,453.9c3,1.3,6.6,0,7.9-3.1l46.7-105.8c3-6.8-0.1-14.7-6.8-17.6c-3.2-1.4-6.9-1.5-10.2-0.2h0
	c-2.9,1.1-5.2,3.1-6.8,5.8c-0.2,0.4-0.5,0.9-0.7,1.3L41.6,440c-1.3,3,0,6.6,3.1,7.9c0,0,0,0,0,0L58.1,453.9z"/>
<path class="st4" d="M110.8,388.5l-46.2-10.3L76.1,348c4-15.3,18.6-25.3,34.3-23.6l0.4,0L110.8,388.5z"/>
<path class="st0" d="M204.1,455.4c-2.8,0-5.3-1.6-6.4-4.2L151,345.5c-3.2-7.3,0.1-15.8,7.4-19c6.7-3,14.6-0.4,18.3,6v0
	c0.3,0.4,0.5,0.9,0.7,1.4L224,439.6c1.6,3.5,0,7.7-3.6,9.2l-14,6.2l0,0C205.7,455.3,204.9,455.4,204.1,455.4z"/>
<path class="st0" d="M139.5,419.1c-3.3,0-6,2.7-6,6v123c0,3.3,2.7,6,6,6h14.8c3.3,0,6-2.7,6-6v-123c0-3.3-2.7-6-6-6H139.5z"/>
<path class="st0" d="M110.3,419.1c-3.3,0-6,2.7-6,6v123c0,3.3,2.7,6,6,6h14.8c3.3,0,6-2.7,6-6v-123c0-3.3-2.7-6-6-6H110.3z"/>
<circle class="st3" cx="131.8" cy="239.2" r="51"/>
<path class="st4" d="M148.8,260.6c3.3-0.1,7.4-0.2,10.6-2.5c1.9-1.5,3.1-3.7,3.2-6.1c0.1-1.7-0.6-3.4-1.9-4.5
	c-1.7-1.4-4.1-1.7-6.7-1l2.7-19.7l-2-0.3l-3.2,23.2l1.7-0.8c1.9-0.9,4.6-1.3,6.2,0.1c0.8,0.7,1.2,1.8,1.2,2.9
	c-0.1,1.8-1,3.4-2.4,4.5c-2.5,1.8-5.7,2-9.5,2.1L148.8,260.6z"/>
<rect x="166.5" y="228.6" class="st4" width="10.8" height="2"/>
<rect x="132.5" y="228.6" class="st4" width="10.8" height="2"/>
<path class="st4" d="M182.4,456.1l-18.4-134c-0.4-3-2.9-5.2-5.9-5.2h-13.9c0.1-0.3,0.1-0.7,0.1-1v-5c0-3.3-2.7-6-6-6h-12
	c-3.3,0-6,2.7-6,6v5c0,0.3,0,0.7,0.1,1h-13.9c-3,0-5.5,2.2-5.9,5.2l-18.4,134c-0.4,3.3,1.8,6.3,5.1,6.8c0.3,0,0.5,0.1,0.8,0.1h88.2
	c3.3,0,6-2.7,6-6C182.4,456.6,182.4,456.3,182.4,456.1z"/>
<path class="st4" d="M153.8,388.5v-64.1l0.4,0c15.7-1.7,30.3,8.4,34.3,23.7l11.4,30.2L153.8,388.5z"/>
<path class="st4" d="M129.3,291.8L94,278.1c-5.8-2.2-11.6-4.4-17.3-6.7c-2.5-0.9-4.7-2.2-6.7-3.9c-1.7-1.8-2.8-4-3.3-6.4
	c-1.2-5.2-1-10.8-0.9-16.1c0.1-5.8,0.5-11.5,1.4-17.2c1.5-10.7,5.2-21,10.7-30.4c9.9-16.2,26.9-28.4,46.5-27.5
	c9.1,0.5,18.2,3.7,24.9,9.9c0.7,0.8,1.5,1.6,2.4,2.3c0.6,0.2,1.3,0.3,1.9,0.1c0.8-0.1,1.6-0.1,2.5-0.1c2.9-0.1,5.7,0,8.6,0.4
	c5.2,0.6,10.1,2.6,14.1,5.9c3.4,2.9,6.1,7,6.4,11.5c0.3,4.2-1.4,8.4-4.6,11.2c-4.2,3.5-10.2,2.3-15.3,2l-18.5-1l-9.4-0.5
	c-1.9-0.1-1.9,2.9,0,3l24.9,1.3c4,0.2,8.1,0.7,12.1,0.5c3.1-0.1,6-1.3,8.3-3.4c4.3-4,6.2-9.9,5-15.6c-1.3-6.1-5.9-11.2-11.2-14.2
	c-7.3-4.1-16-4.5-24.1-3.9l1.1,0.4c-9.2-9.9-23.3-14.1-36.6-12.6c-14,1.5-26.5,9.4-35.4,20c-10,11.9-15.4,26.8-17.5,42
	c-1.1,8.2-1.5,16.6-1.1,24.9c0,3.7,0.6,7.3,1.9,10.8c1.4,3.4,4,6.1,7.2,7.7c3.7,1.8,7.6,3.4,11.5,4.7l13,5l25.5,9.9l6.5,2.5
	C130.3,295.4,131,292.5,129.3,291.8z"/>
<path class="st4" d="M73.8,189.9c-8.6,0-15.5-6.9-15.5-15.5s6.9-15.5,15.5-15.5s15.5,6.9,15.5,15.5l0,0
	C89.3,182.9,82.4,189.9,73.8,189.9z M73.8,161.9c-6.9,0-12.5,5.6-12.5,12.5s5.6,12.5,12.5,12.5s12.5-5.6,12.5-12.5
	C86.3,167.5,80.7,161.9,73.8,161.9z"/>
<rect x="282.2" y="268.7" transform="matrix(0.6075 -0.7943 0.7943 0.6075 -111.2049 354.6804)" class="st0" width="42.2" height="42.2"/>
<path class="st0" d="M143.3,56.9c10.7,0,20.9,5.1,27.3,13.7L190.2,45L131.4,0l-45,58.8l25.3,19.4C116.9,65.3,129.4,56.9,143.3,56.9z
	"/>
<path class="st1" d="M707,555.9H1c-0.6,0-1-0.4-1-1s0.4-1,1-1h706c0.6,0,1,0.4,1,1S707.6,555.9,707,555.9z"/>
<path class="st3" d="M534.7,389.9h-71.9c-5.5,0-10-4.5-10-10v-5c0-5.5,4.5-10,10-10h71.9c5.5,0,10,4.5,10,10v5
	C544.7,385.5,540.2,389.9,534.7,389.9z"/>
<path class="st1" d="M542.3,380.3h-71.9c-5.8,0-10.5-4.7-10.5-10.5v-5c0-5.8,4.7-10.5,10.5-10.5h71.9c5.8,0,10.5,4.7,10.5,10.5v5
	C552.8,375.6,548.1,380.3,542.3,380.3z M470.4,356.4c-4.7,0-8.5,3.8-8.5,8.5v5c0,4.7,3.8,8.5,8.5,8.5h71.9c4.7,0,8.5-3.8,8.5-8.5v-5
	c0-4.7-3.8-8.5-8.5-8.5H470.4z"/>
</svg>
